<svg width="62" height="61" viewBox="0 0 62 61" fill="none" xmlns="http://www.w3.org/2000/svg">
<path d="M15.3492 53.7763L18.6251 52.3614L32.9186 56.2339C32.9186 56.2339 36.1443 57.3757 38.8673 55.5471C41.5903 53.7267 58.7911 42.887 58.7911 42.887C58.7911 42.887 62.6619 40.4708 60.5422 37.3265C58.9754 35.0014 55.8838 36.0522 54.5432 36.8714C53.2027 37.6906 39.2778 46.0727 37.5686 46.2051C36.7224 46.2713 27.0035 43.1104 27.0035 43.1104M34.8624 45.4356C34.8624 45.4356 37.8116 45.9817 38.7835 43.4331C39.7554 40.8846 36.337 39.3372 33.5219 38.2367C30.7068 37.1445 23.4176 34.869 22.7305 34.7779C22.0435 34.6869 20.9795 34.7283 17.8459 36.557C14.7124 38.3774 8.52919 42.0678 8.52919 42.0678M54.9873 18.9322C54.9873 25.5631 49.5444 30.9386 42.8303 30.9386C36.1161 30.9386 30.6732 25.5631 30.6732 18.9322C30.6732 12.3012 36.1161 6.9258 42.8303 6.9258C49.5444 6.9258 54.9873 12.3012 54.9873 18.9322ZM60.6008 14.1826L57.7438 13.3386C57.4338 12.5359 57.0651 11.7664 56.6295 11.03L57.7689 8.30765C56.2692 6.24729 54.317 4.47653 51.9962 3.16915L49.3654 4.56755C48.9716 4.39379 48.5778 4.2283 48.1673 4.08763C47.7568 3.94696 47.3462 3.82284 46.9273 3.71527L45.7795 0.992947C43.1403 0.562671 40.5011 0.719887 38.0211 1.39013L37.1665 4.21175C36.3538 4.51791 35.5746 4.88199 34.8289 5.31226L32.0724 4.18692C29.9862 5.66807 28.1932 7.59604 26.8695 9.88809L28.2854 12.4863C28.1095 12.8752 27.9419 13.2641 27.7995 13.6696C27.657 14.075 27.5313 14.4805 27.4224 14.8942L24.6659 16.0278C24.2303 18.6343 24.3895 21.2408 25.0681 23.69L27.9251 24.534C28.2351 25.3367 28.6038 26.1062 29.0395 26.8426L27.9 29.565C29.3997 31.6253 31.3519 33.3961 33.6727 34.7035L36.3035 33.3051C36.6973 33.4788 37.0911 33.6443 37.5016 33.785C37.9122 33.9257 38.3227 34.0498 38.7416 34.1574L39.8895 36.8797C42.5286 37.31 45.1678 37.1527 47.6478 36.4825L48.5024 33.6609C49.3151 33.3547 50.0943 32.9906 50.84 32.5604L53.5965 33.6857C55.6827 32.2046 57.4757 30.2766 58.7995 27.9845L57.3835 25.3863C57.5595 24.9974 57.727 24.6085 57.8695 24.2031C58.0119 23.7976 58.1376 23.3922 58.2465 22.9784L61.003 21.8448C61.4386 19.2383 61.2795 16.6319 60.6008 14.1826ZM38.8757 25.9407H48.1338C48.1338 25.9407 50.2451 22.1262 48.6951 18.1957C47.8824 16.1354 44.6819 12.8669 44.6819 12.8669L45.0505 10.4756C45.0505 10.4756 43.3246 10.7486 42.47 11.452C41.9422 11.8905 38.1803 14.6873 37.3927 15.1424C36.6051 15.5975 37.2084 17.2855 37.3927 17.691C37.577 18.0964 41.0792 17.7986 41.3473 18.8081C41.8668 20.7691 38.1803 21.4311 38.8673 25.9324L38.8757 25.9407ZM2.1754 40.5804L3.82249 39.6412C5.15693 38.8803 6.86326 39.3319 7.6337 40.6498L16.1168 55.1609C16.8872 56.4788 16.43 58.164 15.0956 58.9249L13.4485 59.864C12.1141 60.6249 10.4077 60.1734 9.6373 58.8555L1.15419 44.3444C0.383756 43.0265 0.840967 41.3413 2.1754 40.5804Z" stroke="#F8D2EA" stroke-width="1.86" stroke-linecap="round" stroke-linejoin="round"/>
</svg>
