<svg width="1360" height="28" viewBox="0 0 1360 28" fill="none" xmlns="http://www.w3.org/2000/svg">
<path d="M98.402 0.945418C97.098 0.945418 96.8041 1.31462 96.8041 2.85952C96.8041 4.40442 97.098 4.77362 98.402 4.77362C99.706 4.77362 100 4.40442 100 2.85952C100 1.31462 99.7002 0.945418 98.402 0.945418ZM98.402 4.4331C97.2727 4.4331 97.098 4.19294 97.098 2.8631C97.098 1.53327 97.2727 1.28236 98.402 1.28236C99.5314 1.28236 99.706 1.52969 99.706 2.8631C99.706 4.19652 99.5314 4.4331 98.402 4.4331Z" fill="#ABB7C2"/>
<path d="M99.2112 2.3792C99.2112 1.91681 99.0162 1.72683 98.501 1.72683H97.6773V3.99221H97.9625V3.1176H98.5214C98.8561 3.1176 98.9201 3.19646 98.9201 3.54773V3.99579H99.2054V3.47246C99.2054 3.12118 99.121 2.99214 98.8998 2.94913V2.94196C99.1152 2.88103 99.2141 2.72689 99.2141 2.38279L99.2112 2.3792ZM98.5214 2.79858H97.9625V2.04226H98.501C98.8415 2.04226 98.926 2.11037 98.926 2.39354C98.926 2.7018 98.8212 2.79858 98.5214 2.79858Z" fill="#ABB7C2"/>
<path d="M20.5088 1.91681C18.189 1.91681 16.0874 3.3721 14.8824 5.81311L12.7518 10.2758H17.0945L9.90511 23.6422L12.0998 23.6565L20.4942 8.02831H15.9361L16.4193 7.03183L16.4396 6.99598C17.3099 5.22168 18.8322 4.16426 20.5117 4.16426C23.1342 4.16426 25.2678 6.79167 25.2678 10.0213C25.2678 13.2509 23.1342 15.8783 20.5117 15.8783C19.7782 15.8783 19.0738 15.6775 18.4189 15.2832L17.6156 17.3013C18.5208 17.8497 19.4959 18.1257 20.5117 18.1257C24.1413 18.1257 27.0928 14.4911 27.0928 10.0213C27.0928 5.55145 24.1413 1.91681 20.5117 1.91681H20.5088Z" fill="#ABB7C2"/>
<path d="M13.4474 11.7024H9.04354C8.51671 10.731 8.24019 9.60188 8.24019 8.41543C8.24019 5.13565 10.4087 2.46523 13.072 2.46523C13.7938 2.46523 14.4953 2.66237 15.1385 3.03516C15.5344 2.56918 16.0758 2.01359 16.7161 1.55478C15.6334 0.680169 14.373 0.217773 13.072 0.217773C10.429 0.217773 8.14123 2.12471 7.06718 4.87757C6.67423 4.7772 6.27256 4.72702 5.86215 4.72702C2.62836 4.72702 0 7.96379 0 11.9461C0 15.9285 2.62836 19.1652 5.86506 19.1652L10.1904 19.1509L13.4474 11.7024ZM5.86215 16.9178C3.63546 16.9178 1.82501 14.6882 1.82501 11.9461C1.82501 9.20401 3.63546 6.97448 5.86215 6.97448C6.08045 6.97448 6.29584 6.99598 6.50833 7.039C6.4472 7.48705 6.41518 7.94587 6.41518 8.41543C6.41518 10.2686 6.93038 12.0823 7.86762 13.5269L8.14123 13.9498H10.2515L8.85435 16.907L5.86506 16.9178H5.86215Z" fill="#ABB7C2"/>
<path d="M38.7822 8.58031C36.2178 8.37242 35.266 8.37242 34.7363 7.72004C34.5034 7.43329 34.419 6.96372 34.419 6.18231C34.419 5.50485 34.5034 5.00661 34.7363 4.71985C35.202 4.14634 36.1334 3.98862 37.8507 3.98862C39.5681 3.98862 40.4995 4.14634 40.9652 4.71985C41.2417 5.06038 41.3261 5.68407 41.3261 6.39021V6.75582H44.9267V6.4153C44.9267 4.40801 44.7142 2.92045 43.9312 1.95265C42.8921 0.647908 41.0496 0.257202 37.8304 0.257202C34.8644 0.257202 32.9782 0.726766 31.8576 2.08169C31.0513 3.04591 30.7777 4.53346 30.7777 6.38663C30.7777 8.57673 31.1154 9.80261 31.7732 10.6378C32.6406 11.7597 34.1047 12.2293 36.7738 12.4121C39.8446 12.62 40.8633 12.5949 41.4338 13.3261C41.687 13.638 41.7715 14.1864 41.7715 14.9965C41.7715 15.6238 41.687 16.1973 41.4338 16.5091C40.9477 17.1077 39.9494 17.2655 38.0021 17.2655C36.0548 17.2655 35.2049 17.1615 34.6752 16.5091C34.3987 16.1686 34.2939 15.6238 34.2939 14.7599V14.2653H30.6497V14.7886C30.6497 16.8748 30.9669 18.3372 31.7528 19.3014C32.8123 20.6062 34.3375 21.022 38.0661 21.022C41.2854 21.022 43.2152 20.4986 44.3591 19.0899C45.078 18.2046 45.4593 16.8461 45.4593 14.8101C45.4593 12.62 45.1828 11.1324 44.5046 10.2722C43.5295 9.0212 41.6434 8.80972 38.7851 8.57673L38.7822 8.58031Z" fill="#ABB7C2"/>
<path d="M51.6213 12.3117H60.0972V8.63408H51.6213V4.30047H60.6473V0.493777H47.9363V20.789H60.7958V16.9823H51.6213V12.3117Z" fill="#ABB7C2"/>
<path d="M74.8632 13.3799C74.8632 16.3012 74.3131 17.1615 70.9425 17.1615C67.5719 17.1615 67.0451 16.3012 67.0451 13.3799V0.493777H63.3368V14.1398C63.3368 18.8605 65.0309 21.0291 70.9425 21.0291C76.8541 21.0291 78.5685 18.8641 78.5685 14.1398V0.493777H74.8603V13.3835L74.8632 13.3799Z" fill="#ABB7C2"/>
<path d="M89.1838 8.58031C86.6195 8.37242 85.6677 8.37242 85.138 7.72004C84.9051 7.43329 84.8207 6.96372 84.8207 6.18231C84.8207 5.50485 84.9051 5.00661 85.138 4.71985C85.6037 4.14634 86.5351 3.98862 88.2524 3.98862C89.9697 3.98862 90.9012 4.14634 91.3669 4.71985C91.6434 5.06038 91.7278 5.68407 91.7278 6.39021V6.75582H95.3283V6.4153C95.3283 4.40801 95.1158 2.92045 94.3329 1.95265C93.2937 0.647908 91.4513 0.257202 88.232 0.257202C85.266 0.257202 83.3799 0.726766 82.2564 2.08169C81.4501 3.04591 81.1765 4.53346 81.1765 6.38663C81.1765 8.57673 81.5141 9.80261 82.172 10.6378C83.0394 11.7597 84.5034 12.2293 87.1725 12.4121C90.2433 12.62 91.2621 12.5949 91.8326 13.3261C92.0858 13.638 92.1702 14.1864 92.1702 14.9965C92.1702 15.6238 92.0858 16.1973 91.8326 16.5091C91.3465 17.1077 90.351 17.2655 88.4009 17.2655C86.4507 17.2655 85.6037 17.1615 85.0739 16.5091C84.7974 16.1686 84.6926 15.6238 84.6926 14.7599V14.2653H81.0484V14.7886C81.0484 16.8748 81.3657 18.3372 82.1487 19.3014C83.2082 20.6062 84.7334 21.022 88.462 21.022C91.6812 21.022 93.611 20.4986 94.7549 19.0899C95.4739 18.2046 95.8581 16.8461 95.8581 14.8101C95.8581 12.62 95.5816 11.1324 94.9034 10.2722C93.9283 9.0212 92.0422 8.80972 89.1838 8.57673V8.58031Z" fill="#ABB7C2"/>
<path d="M31.9362 24.2444H30.7428V23.7175H33.604V24.2444H32.4106V27.7823H31.9362V24.2444Z" fill="#ABB7C2"/>
<path d="M43.9457 23.7139H44.6007L45.9978 27.7823H45.4884L45.1857 26.8897H43.3549L43.0522 27.7823H42.5515L43.9457 23.7139ZM45.0111 26.3628L44.2747 24.1978H44.2659L43.5295 26.3628H45.0111Z" fill="#ABB7C2"/>
<path d="M55.7224 23.7139H56.1969V27.2518H58.0132V27.7787H55.7224V23.7103V23.7139Z" fill="#ABB7C2"/>
<path d="M67.8047 23.7139H70.2556V24.2408H68.2792V25.4237H70.1566V25.9506H68.2792V27.2518H70.2701V27.7787H67.8047V23.7103V23.7139Z" fill="#ABB7C2"/>
<path d="M80.2131 23.7139H80.9L82.7949 27.2052H82.7978V23.7139H83.246V27.7823H82.5591L80.67 24.291H80.6671V27.7823H80.2131V23.7139Z" fill="#ABB7C2"/>
<path d="M94.231 24.2444H93.0376V23.7175H95.8988V24.2444H94.7054V27.7823H94.231V24.2444Z" fill="#ABB7C2"/>
<path d="M238.402 0.945418C237.098 0.945418 236.804 1.31462 236.804 2.85952C236.804 4.40442 237.098 4.77362 238.402 4.77362C239.706 4.77362 240 4.40442 240 2.85952C240 1.31462 239.7 0.945418 238.402 0.945418ZM238.402 4.4331C237.273 4.4331 237.098 4.19294 237.098 2.8631C237.098 1.53327 237.273 1.28236 238.402 1.28236C239.531 1.28236 239.706 1.52969 239.706 2.8631C239.706 4.19652 239.531 4.4331 238.402 4.4331Z" fill="#ABB7C2"/>
<path d="M239.211 2.3792C239.211 1.91681 239.016 1.72683 238.501 1.72683H237.677V3.99221H237.963V3.1176H238.521C238.856 3.1176 238.92 3.19646 238.92 3.54773V3.99579H239.205V3.47246C239.205 3.12118 239.121 2.99214 238.9 2.94913V2.94196C239.115 2.88103 239.214 2.72689 239.214 2.38279L239.211 2.3792ZM238.521 2.79858H237.963V2.04226H238.501C238.842 2.04226 238.926 2.11037 238.926 2.39354C238.926 2.7018 238.821 2.79858 238.521 2.79858Z" fill="#ABB7C2"/>
<path d="M160.509 1.91681C158.189 1.91681 156.087 3.3721 154.882 5.81311L152.752 10.2758H157.095L149.905 23.6422L152.1 23.6565L160.494 8.02831H155.936L156.419 7.03183L156.44 6.99598C157.31 5.22168 158.832 4.16426 160.512 4.16426C163.134 4.16426 165.268 6.79167 165.268 10.0213C165.268 13.2509 163.134 15.8783 160.512 15.8783C159.778 15.8783 159.074 15.6775 158.419 15.2832L157.616 17.3013C158.521 17.8497 159.496 18.1257 160.512 18.1257C164.141 18.1257 167.093 14.4911 167.093 10.0213C167.093 5.55145 164.141 1.91681 160.512 1.91681H160.509Z" fill="#ABB7C2"/>
<path d="M153.447 11.7024H149.044C148.517 10.731 148.24 9.60188 148.24 8.41543C148.24 5.13565 150.409 2.46523 153.072 2.46523C153.794 2.46523 154.495 2.66237 155.139 3.03516C155.534 2.56918 156.076 2.01359 156.716 1.55478C155.633 0.680168 154.373 0.217773 153.072 0.217773C150.429 0.217773 148.141 2.12471 147.067 4.87757C146.674 4.7772 146.273 4.72702 145.862 4.72702C142.628 4.72702 140 7.96379 140 11.9461C140 15.9285 142.628 19.1652 145.865 19.1652L150.19 19.1509L153.447 11.7024ZM145.862 16.9178C143.635 16.9178 141.825 14.6882 141.825 11.9461C141.825 9.20401 143.635 6.97448 145.862 6.97448C146.08 6.97448 146.296 6.99598 146.508 7.039C146.447 7.48705 146.415 7.94587 146.415 8.41543C146.415 10.2686 146.93 12.0823 147.868 13.5269L148.141 13.9498H150.251L148.854 16.907L145.865 16.9178H145.862Z" fill="#ABB7C2"/>
<path d="M178.782 8.58031C176.218 8.37242 175.266 8.37242 174.736 7.72004C174.503 7.43329 174.419 6.96372 174.419 6.18231C174.419 5.50485 174.503 5.00661 174.736 4.71985C175.202 4.14634 176.133 3.98862 177.851 3.98862C179.568 3.98862 180.499 4.14634 180.965 4.71985C181.242 5.06038 181.326 5.68407 181.326 6.39021V6.75582H184.927V6.4153C184.927 4.40801 184.714 2.92045 183.931 1.95265C182.892 0.647908 181.05 0.257202 177.83 0.257202C174.864 0.257202 172.978 0.726766 171.858 2.08169C171.051 3.04591 170.778 4.53346 170.778 6.38663C170.778 8.57673 171.115 9.80261 171.773 10.6378C172.641 11.7597 174.105 12.2293 176.774 12.4121C179.845 12.62 180.863 12.5949 181.434 13.3261C181.687 13.638 181.771 14.1864 181.771 14.9965C181.771 15.6238 181.687 16.1973 181.434 16.5091C180.948 17.1077 179.949 17.2655 178.002 17.2655C176.055 17.2655 175.205 17.1615 174.675 16.5091C174.399 16.1686 174.294 15.6238 174.294 14.7599V14.2653H170.65V14.7886C170.65 16.8748 170.967 18.3372 171.753 19.3014C172.812 20.6062 174.338 21.022 178.066 21.022C181.285 21.022 183.215 20.4986 184.359 19.0899C185.078 18.2046 185.459 16.8461 185.459 14.8101C185.459 12.62 185.183 11.1324 184.505 10.2722C183.53 9.0212 181.643 8.80972 178.785 8.57673L178.782 8.58031Z" fill="#ABB7C2"/>
<path d="M191.621 12.3117H200.097V8.63408H191.621V4.30047H200.647V0.493777H187.936V20.789H200.796V16.9823H191.621V12.3117Z" fill="#ABB7C2"/>
<path d="M214.863 13.3799C214.863 16.3012 214.313 17.1615 210.942 17.1615C207.572 17.1615 207.045 16.3012 207.045 13.3799V0.493777H203.337V14.1398C203.337 18.8605 205.031 21.0291 210.942 21.0291C216.854 21.0291 218.569 18.8641 218.569 14.1398V0.493777H214.86V13.3835L214.863 13.3799Z" fill="#ABB7C2"/>
<path d="M229.184 8.58031C226.62 8.37242 225.668 8.37242 225.138 7.72004C224.905 7.43329 224.821 6.96372 224.821 6.18231C224.821 5.50485 224.905 5.00661 225.138 4.71985C225.604 4.14634 226.535 3.98862 228.252 3.98862C229.97 3.98862 230.901 4.14634 231.367 4.71985C231.643 5.06038 231.728 5.68407 231.728 6.39021V6.75582H235.328V6.4153C235.328 4.40801 235.116 2.92045 234.333 1.95265C233.294 0.647908 231.451 0.257202 228.232 0.257202C225.266 0.257202 223.38 0.726766 222.256 2.08169C221.45 3.04591 221.177 4.53346 221.177 6.38663C221.177 8.57673 221.514 9.80261 222.172 10.6378C223.039 11.7597 224.503 12.2293 227.173 12.4121C230.243 12.62 231.262 12.5949 231.833 13.3261C232.086 13.638 232.17 14.1864 232.17 14.9965C232.17 15.6238 232.086 16.1973 231.833 16.5091C231.346 17.1077 230.351 17.2655 228.401 17.2655C226.451 17.2655 225.604 17.1615 225.074 16.5091C224.797 16.1686 224.693 15.6238 224.693 14.7599V14.2653H221.048V14.7886C221.048 16.8748 221.366 18.3372 222.149 19.3014C223.208 20.6062 224.733 21.022 228.462 21.022C231.681 21.022 233.611 20.4986 234.755 19.0899C235.474 18.2046 235.858 16.8461 235.858 14.8101C235.858 12.62 235.582 11.1324 234.903 10.2722C233.928 9.0212 232.042 8.80972 229.184 8.57673V8.58031Z" fill="#ABB7C2"/>
<path d="M171.936 24.2444H170.743V23.7175H173.604V24.2444H172.411V27.7823H171.936V24.2444Z" fill="#ABB7C2"/>
<path d="M183.946 23.7139H184.601L185.998 27.7823H185.488L185.186 26.8897H183.355L183.052 27.7823H182.552L183.946 23.7139ZM185.011 26.3628L184.275 24.1978H184.266L183.53 26.3628H185.011Z" fill="#ABB7C2"/>
<path d="M195.722 23.7139H196.197V27.2518H198.013V27.7787H195.722V23.7103V23.7139Z" fill="#ABB7C2"/>
<path d="M207.805 23.7139H210.256V24.2408H208.279V25.4237H210.157V25.9506H208.279V27.2518H210.27V27.7787H207.805V23.7103V23.7139Z" fill="#ABB7C2"/>
<path d="M220.213 23.7139H220.9L222.795 27.2052H222.798V23.7139H223.246V27.7823H222.559L220.67 24.291H220.667V27.7823H220.213V23.7139Z" fill="#ABB7C2"/>
<path d="M234.231 24.2444H233.038V23.7175H235.899V24.2444H234.705V27.7823H234.231V24.2444Z" fill="#ABB7C2"/>
<path d="M378.402 0.945418C377.098 0.945418 376.804 1.31462 376.804 2.85952C376.804 4.40442 377.098 4.77362 378.402 4.77362C379.706 4.77362 380 4.40442 380 2.85952C380 1.31462 379.7 0.945418 378.402 0.945418ZM378.402 4.4331C377.273 4.4331 377.098 4.19294 377.098 2.8631C377.098 1.53327 377.273 1.28236 378.402 1.28236C379.531 1.28236 379.706 1.52969 379.706 2.8631C379.706 4.19652 379.531 4.4331 378.402 4.4331Z" fill="#ABB7C2"/>
<path d="M379.211 2.3792C379.211 1.91681 379.016 1.72683 378.501 1.72683H377.677V3.99221H377.963V3.1176H378.521C378.856 3.1176 378.92 3.19646 378.92 3.54773V3.99579H379.205V3.47246C379.205 3.12118 379.121 2.99214 378.9 2.94913V2.94196C379.115 2.88103 379.214 2.72689 379.214 2.38279L379.211 2.3792ZM378.521 2.79858H377.963V2.04226H378.501C378.842 2.04226 378.926 2.11037 378.926 2.39354C378.926 2.7018 378.821 2.79858 378.521 2.79858Z" fill="#ABB7C2"/>
<path d="M300.509 1.91681C298.189 1.91681 296.087 3.3721 294.882 5.81311L292.752 10.2758H297.095L289.905 23.6422L292.1 23.6565L300.494 8.02831H295.936L296.419 7.03183L296.44 6.99598C297.31 5.22168 298.832 4.16426 300.512 4.16426C303.134 4.16426 305.268 6.79167 305.268 10.0213C305.268 13.2509 303.134 15.8783 300.512 15.8783C299.778 15.8783 299.074 15.6775 298.419 15.2832L297.616 17.3013C298.521 17.8497 299.496 18.1257 300.512 18.1257C304.141 18.1257 307.093 14.4911 307.093 10.0213C307.093 5.55145 304.141 1.91681 300.512 1.91681H300.509Z" fill="#ABB7C2"/>
<path d="M293.447 11.7024H289.044C288.517 10.731 288.24 9.60188 288.24 8.41543C288.24 5.13565 290.409 2.46523 293.072 2.46523C293.794 2.46523 294.495 2.66237 295.139 3.03516C295.534 2.56918 296.076 2.01359 296.716 1.55478C295.633 0.680169 294.373 0.217773 293.072 0.217773C290.429 0.217773 288.141 2.12471 287.067 4.87757C286.674 4.7772 286.273 4.72702 285.862 4.72702C282.628 4.72702 280 7.96379 280 11.9461C280 15.9285 282.628 19.1652 285.865 19.1652L290.19 19.1509L293.447 11.7024ZM285.862 16.9178C283.635 16.9178 281.825 14.6882 281.825 11.9461C281.825 9.20401 283.635 6.97448 285.862 6.97448C286.08 6.97448 286.296 6.99598 286.508 7.039C286.447 7.48705 286.415 7.94587 286.415 8.41543C286.415 10.2686 286.93 12.0823 287.868 13.5269L288.141 13.9498H290.251L288.854 16.907L285.865 16.9178H285.862Z" fill="#ABB7C2"/>
<path d="M318.782 8.58031C316.218 8.37242 315.266 8.37242 314.736 7.72004C314.503 7.43329 314.419 6.96372 314.419 6.18231C314.419 5.50485 314.503 5.00661 314.736 4.71985C315.202 4.14634 316.133 3.98862 317.851 3.98862C319.568 3.98862 320.499 4.14634 320.965 4.71985C321.242 5.06038 321.326 5.68407 321.326 6.39021V6.75582H324.927V6.4153C324.927 4.40801 324.714 2.92045 323.931 1.95265C322.892 0.647908 321.05 0.257202 317.83 0.257202C314.864 0.257202 312.978 0.726766 311.858 2.08169C311.051 3.04591 310.778 4.53346 310.778 6.38663C310.778 8.57673 311.115 9.80261 311.773 10.6378C312.641 11.7597 314.105 12.2293 316.774 12.4121C319.845 12.62 320.863 12.5949 321.434 13.3261C321.687 13.638 321.771 14.1864 321.771 14.9965C321.771 15.6238 321.687 16.1973 321.434 16.5091C320.948 17.1077 319.949 17.2655 318.002 17.2655C316.055 17.2655 315.205 17.1615 314.675 16.5091C314.399 16.1686 314.294 15.6238 314.294 14.7599V14.2653H310.65V14.7886C310.65 16.8748 310.967 18.3372 311.753 19.3014C312.812 20.6062 314.338 21.022 318.066 21.022C321.285 21.022 323.215 20.4986 324.359 19.0899C325.078 18.2046 325.459 16.8461 325.459 14.8101C325.459 12.62 325.183 11.1324 324.505 10.2722C323.53 9.0212 321.643 8.80972 318.785 8.57673L318.782 8.58031Z" fill="#ABB7C2"/>
<path d="M331.621 12.3117H340.097V8.63408H331.621V4.30047H340.647V0.493777H327.936V20.789H340.796V16.9823H331.621V12.3117Z" fill="#ABB7C2"/>
<path d="M354.863 13.3799C354.863 16.3012 354.313 17.1615 350.942 17.1615C347.572 17.1615 347.045 16.3012 347.045 13.3799V0.493777H343.337V14.1398C343.337 18.8605 345.031 21.0291 350.942 21.0291C356.854 21.0291 358.569 18.8641 358.569 14.1398V0.493777H354.86V13.3835L354.863 13.3799Z" fill="#ABB7C2"/>
<path d="M369.184 8.58031C366.62 8.37242 365.668 8.37242 365.138 7.72004C364.905 7.43329 364.821 6.96372 364.821 6.18231C364.821 5.50485 364.905 5.00661 365.138 4.71985C365.604 4.14634 366.535 3.98862 368.252 3.98862C369.97 3.98862 370.901 4.14634 371.367 4.71985C371.643 5.06038 371.728 5.68407 371.728 6.39021V6.75582H375.328V6.4153C375.328 4.40801 375.116 2.92045 374.333 1.95265C373.294 0.647908 371.451 0.257202 368.232 0.257202C365.266 0.257202 363.38 0.726766 362.256 2.08169C361.45 3.04591 361.177 4.53346 361.177 6.38663C361.177 8.57673 361.514 9.80261 362.172 10.6378C363.039 11.7597 364.503 12.2293 367.173 12.4121C370.243 12.62 371.262 12.5949 371.833 13.3261C372.086 13.638 372.17 14.1864 372.17 14.9965C372.17 15.6238 372.086 16.1973 371.833 16.5091C371.346 17.1077 370.351 17.2655 368.401 17.2655C366.451 17.2655 365.604 17.1615 365.074 16.5091C364.797 16.1686 364.693 15.6238 364.693 14.7599V14.2653H361.048V14.7886C361.048 16.8748 361.366 18.3372 362.149 19.3014C363.208 20.6062 364.733 21.022 368.462 21.022C371.681 21.022 373.611 20.4986 374.755 19.0899C375.474 18.2046 375.858 16.8461 375.858 14.8101C375.858 12.62 375.582 11.1324 374.903 10.2722C373.928 9.0212 372.042 8.80972 369.184 8.57673V8.58031Z" fill="#ABB7C2"/>
<path d="M311.936 24.2444H310.743V23.7175H313.604V24.2444H312.411V27.7823H311.936V24.2444Z" fill="#ABB7C2"/>
<path d="M323.946 23.7139H324.601L325.998 27.7823H325.488L325.186 26.8897H323.355L323.052 27.7823H322.552L323.946 23.7139ZM325.011 26.3628L324.275 24.1978H324.266L323.53 26.3628H325.011Z" fill="#ABB7C2"/>
<path d="M335.722 23.7139H336.197V27.2518H338.013V27.7787H335.722V23.7103V23.7139Z" fill="#ABB7C2"/>
<path d="M347.805 23.7139H350.256V24.2408H348.279V25.4237H350.157V25.9506H348.279V27.2518H350.27V27.7787H347.805V23.7103V23.7139Z" fill="#ABB7C2"/>
<path d="M360.213 23.7139H360.9L362.795 27.2052H362.798V23.7139H363.246V27.7823H362.559L360.67 24.291H360.667V27.7823H360.213V23.7139Z" fill="#ABB7C2"/>
<path d="M374.231 24.2444H373.038V23.7175H375.899V24.2444H374.705V27.7823H374.231V24.2444Z" fill="#ABB7C2"/>
<path d="M518.402 0.945418C517.098 0.945418 516.804 1.31462 516.804 2.85952C516.804 4.40442 517.098 4.77362 518.402 4.77362C519.706 4.77362 520 4.40442 520 2.85952C520 1.31462 519.7 0.945418 518.402 0.945418ZM518.402 4.4331C517.273 4.4331 517.098 4.19294 517.098 2.8631C517.098 1.53327 517.273 1.28236 518.402 1.28236C519.531 1.28236 519.706 1.52969 519.706 2.8631C519.706 4.19652 519.531 4.4331 518.402 4.4331Z" fill="#ABB7C2"/>
<path d="M519.211 2.3792C519.211 1.91681 519.016 1.72683 518.501 1.72683H517.677V3.99221H517.963V3.1176H518.521C518.856 3.1176 518.92 3.19646 518.92 3.54773V3.99579H519.205V3.47246C519.205 3.12118 519.121 2.99214 518.9 2.94913V2.94196C519.115 2.88103 519.214 2.72689 519.214 2.38279L519.211 2.3792ZM518.521 2.79858H517.963V2.04226H518.501C518.842 2.04226 518.926 2.11037 518.926 2.39354C518.926 2.7018 518.821 2.79858 518.521 2.79858Z" fill="#ABB7C2"/>
<path d="M440.509 1.91681C438.189 1.91681 436.087 3.3721 434.882 5.81311L432.752 10.2758H437.095L429.905 23.6422L432.1 23.6565L440.494 8.02831H435.936L436.419 7.03183L436.44 6.99598C437.31 5.22168 438.832 4.16426 440.512 4.16426C443.134 4.16426 445.268 6.79167 445.268 10.0213C445.268 13.2509 443.134 15.8783 440.512 15.8783C439.778 15.8783 439.074 15.6775 438.419 15.2832L437.616 17.3013C438.521 17.8497 439.496 18.1257 440.512 18.1257C444.141 18.1257 447.093 14.4911 447.093 10.0213C447.093 5.55145 444.141 1.91681 440.512 1.91681H440.509Z" fill="#ABB7C2"/>
<path d="M433.447 11.7024H429.044C428.517 10.731 428.24 9.60188 428.24 8.41543C428.24 5.13565 430.409 2.46523 433.072 2.46523C433.794 2.46523 434.495 2.66237 435.139 3.03516C435.534 2.56918 436.076 2.01359 436.716 1.55478C435.633 0.680169 434.373 0.217773 433.072 0.217773C430.429 0.217773 428.141 2.12471 427.067 4.87757C426.674 4.7772 426.273 4.72702 425.862 4.72702C422.628 4.72702 420 7.96379 420 11.9461C420 15.9285 422.628 19.1652 425.865 19.1652L430.19 19.1509L433.447 11.7024ZM425.862 16.9178C423.635 16.9178 421.825 14.6882 421.825 11.9461C421.825 9.20401 423.635 6.97448 425.862 6.97448C426.08 6.97448 426.296 6.99598 426.508 7.039C426.447 7.48705 426.415 7.94587 426.415 8.41543C426.415 10.2686 426.93 12.0823 427.868 13.5269L428.141 13.9498H430.251L428.854 16.907L425.865 16.9178H425.862Z" fill="#ABB7C2"/>
<path d="M458.782 8.58031C456.218 8.37242 455.266 8.37242 454.736 7.72004C454.503 7.43329 454.419 6.96372 454.419 6.18231C454.419 5.50485 454.503 5.00661 454.736 4.71985C455.202 4.14634 456.133 3.98862 457.851 3.98862C459.568 3.98862 460.499 4.14634 460.965 4.71985C461.242 5.06038 461.326 5.68407 461.326 6.39021V6.75582H464.927V6.4153C464.927 4.40801 464.714 2.92045 463.931 1.95265C462.892 0.647908 461.05 0.257202 457.83 0.257202C454.864 0.257202 452.978 0.726766 451.858 2.08169C451.051 3.04591 450.778 4.53346 450.778 6.38663C450.778 8.57673 451.115 9.80261 451.773 10.6378C452.641 11.7597 454.105 12.2293 456.774 12.4121C459.845 12.62 460.863 12.5949 461.434 13.3261C461.687 13.638 461.771 14.1864 461.771 14.9965C461.771 15.6238 461.687 16.1973 461.434 16.5091C460.948 17.1077 459.949 17.2655 458.002 17.2655C456.055 17.2655 455.205 17.1615 454.675 16.5091C454.399 16.1686 454.294 15.6238 454.294 14.7599V14.2653H450.65V14.7886C450.65 16.8748 450.967 18.3372 451.753 19.3014C452.812 20.6062 454.338 21.022 458.066 21.022C461.285 21.022 463.215 20.4986 464.359 19.0899C465.078 18.2046 465.459 16.8461 465.459 14.8101C465.459 12.62 465.183 11.1324 464.505 10.2722C463.53 9.0212 461.643 8.80972 458.785 8.57673L458.782 8.58031Z" fill="#ABB7C2"/>
<path d="M471.621 12.3117H480.097V8.63408H471.621V4.30047H480.647V0.493777H467.936V20.789H480.796V16.9823H471.621V12.3117Z" fill="#ABB7C2"/>
<path d="M494.863 13.3799C494.863 16.3012 494.313 17.1615 490.942 17.1615C487.572 17.1615 487.045 16.3012 487.045 13.3799V0.493777H483.337V14.1398C483.337 18.8605 485.031 21.0291 490.942 21.0291C496.854 21.0291 498.569 18.8641 498.569 14.1398V0.493777H494.86V13.3835L494.863 13.3799Z" fill="#ABB7C2"/>
<path d="M509.184 8.58031C506.62 8.37242 505.668 8.37242 505.138 7.72004C504.905 7.43329 504.821 6.96372 504.821 6.18231C504.821 5.50485 504.905 5.00661 505.138 4.71985C505.604 4.14634 506.535 3.98862 508.252 3.98862C509.97 3.98862 510.901 4.14634 511.367 4.71985C511.643 5.06038 511.728 5.68407 511.728 6.39021V6.75582H515.328V6.4153C515.328 4.40801 515.116 2.92045 514.333 1.95265C513.294 0.647908 511.451 0.257202 508.232 0.257202C505.266 0.257202 503.38 0.726766 502.256 2.08169C501.45 3.04591 501.177 4.53346 501.177 6.38663C501.177 8.57673 501.514 9.80261 502.172 10.6378C503.039 11.7597 504.503 12.2293 507.173 12.4121C510.243 12.62 511.262 12.5949 511.833 13.3261C512.086 13.638 512.17 14.1864 512.17 14.9965C512.17 15.6238 512.086 16.1973 511.833 16.5091C511.346 17.1077 510.351 17.2655 508.401 17.2655C506.451 17.2655 505.604 17.1615 505.074 16.5091C504.797 16.1686 504.693 15.6238 504.693 14.7599V14.2653H501.048V14.7886C501.048 16.8748 501.366 18.3372 502.149 19.3014C503.208 20.6062 504.733 21.022 508.462 21.022C511.681 21.022 513.611 20.4986 514.755 19.0899C515.474 18.2046 515.858 16.8461 515.858 14.8101C515.858 12.62 515.582 11.1324 514.903 10.2722C513.928 9.0212 512.042 8.80972 509.184 8.57673V8.58031Z" fill="#ABB7C2"/>
<path d="M451.936 24.2444H450.743V23.7175H453.604V24.2444H452.411V27.7823H451.936V24.2444Z" fill="#ABB7C2"/>
<path d="M463.946 23.7139H464.601L465.998 27.7823H465.488L465.186 26.8897H463.355L463.052 27.7823H462.552L463.946 23.7139ZM465.011 26.3628L464.275 24.1978H464.266L463.53 26.3628H465.011Z" fill="#ABB7C2"/>
<path d="M475.722 23.7139H476.197V27.2518H478.013V27.7787H475.722V23.7103V23.7139Z" fill="#ABB7C2"/>
<path d="M487.805 23.7139H490.256V24.2408H488.279V25.4237H490.157V25.9506H488.279V27.2518H490.27V27.7787H487.805V23.7103V23.7139Z" fill="#ABB7C2"/>
<path d="M500.213 23.7139H500.9L502.795 27.2052H502.798V23.7139H503.246V27.7823H502.559L500.67 24.291H500.667V27.7823H500.213V23.7139Z" fill="#ABB7C2"/>
<path d="M514.231 24.2444H513.038V23.7175H515.899V24.2444H514.705V27.7823H514.231V24.2444Z" fill="#ABB7C2"/>
<path d="M658.402 0.945418C657.098 0.945418 656.804 1.31462 656.804 2.85952C656.804 4.40442 657.098 4.77362 658.402 4.77362C659.706 4.77362 660 4.40442 660 2.85952C660 1.31462 659.7 0.945418 658.402 0.945418ZM658.402 4.4331C657.273 4.4331 657.098 4.19294 657.098 2.8631C657.098 1.53327 657.273 1.28236 658.402 1.28236C659.531 1.28236 659.706 1.52969 659.706 2.8631C659.706 4.19652 659.531 4.4331 658.402 4.4331Z" fill="#ABB7C2"/>
<path d="M659.211 2.3792C659.211 1.91681 659.016 1.72683 658.501 1.72683H657.677V3.99221H657.963V3.1176H658.521C658.856 3.1176 658.92 3.19646 658.92 3.54773V3.99579H659.205V3.47246C659.205 3.12118 659.121 2.99214 658.9 2.94913V2.94196C659.115 2.88103 659.214 2.72689 659.214 2.38279L659.211 2.3792ZM658.521 2.79858H657.963V2.04226H658.501C658.842 2.04226 658.926 2.11037 658.926 2.39354C658.926 2.7018 658.821 2.79858 658.521 2.79858Z" fill="#ABB7C2"/>
<path d="M580.509 1.91681C578.189 1.91681 576.087 3.3721 574.882 5.81311L572.752 10.2758H577.095L569.905 23.6422L572.1 23.6565L580.494 8.02831H575.936L576.419 7.03183L576.44 6.99598C577.31 5.22168 578.832 4.16426 580.512 4.16426C583.134 4.16426 585.268 6.79167 585.268 10.0213C585.268 13.2509 583.134 15.8783 580.512 15.8783C579.778 15.8783 579.074 15.6775 578.419 15.2832L577.616 17.3013C578.521 17.8497 579.496 18.1257 580.512 18.1257C584.141 18.1257 587.093 14.4911 587.093 10.0213C587.093 5.55145 584.141 1.91681 580.512 1.91681H580.509Z" fill="#ABB7C2"/>
<path d="M573.447 11.7024H569.044C568.517 10.731 568.24 9.60188 568.24 8.41543C568.24 5.13565 570.409 2.46523 573.072 2.46523C573.794 2.46523 574.495 2.66237 575.139 3.03516C575.534 2.56918 576.076 2.01359 576.716 1.55478C575.633 0.680169 574.373 0.217773 573.072 0.217773C570.429 0.217773 568.141 2.12471 567.067 4.87757C566.674 4.7772 566.273 4.72702 565.862 4.72702C562.628 4.72702 560 7.96379 560 11.9461C560 15.9285 562.628 19.1652 565.865 19.1652L570.19 19.1509L573.447 11.7024ZM565.862 16.9178C563.635 16.9178 561.825 14.6882 561.825 11.9461C561.825 9.20401 563.635 6.97448 565.862 6.97448C566.08 6.97448 566.296 6.99598 566.508 7.039C566.447 7.48705 566.415 7.94587 566.415 8.41543C566.415 10.2686 566.93 12.0823 567.868 13.5269L568.141 13.9498H570.251L568.854 16.907L565.865 16.9178H565.862Z" fill="#ABB7C2"/>
<path d="M598.782 8.58031C596.218 8.37242 595.266 8.37242 594.736 7.72004C594.503 7.43329 594.419 6.96372 594.419 6.18231C594.419 5.50485 594.503 5.00661 594.736 4.71985C595.202 4.14634 596.133 3.98862 597.851 3.98862C599.568 3.98862 600.499 4.14634 600.965 4.71985C601.242 5.06038 601.326 5.68407 601.326 6.39021V6.75582H604.927V6.4153C604.927 4.40801 604.714 2.92045 603.931 1.95265C602.892 0.647908 601.05 0.257202 597.83 0.257202C594.864 0.257202 592.978 0.726766 591.858 2.08169C591.051 3.04591 590.778 4.53346 590.778 6.38663C590.778 8.57673 591.115 9.80261 591.773 10.6378C592.641 11.7597 594.105 12.2293 596.774 12.4121C599.845 12.62 600.863 12.5949 601.434 13.3261C601.687 13.638 601.771 14.1864 601.771 14.9965C601.771 15.6238 601.687 16.1973 601.434 16.5091C600.948 17.1077 599.949 17.2655 598.002 17.2655C596.055 17.2655 595.205 17.1615 594.675 16.5091C594.399 16.1686 594.294 15.6238 594.294 14.7599V14.2653H590.65V14.7886C590.65 16.8748 590.967 18.3372 591.753 19.3014C592.812 20.6062 594.338 21.022 598.066 21.022C601.285 21.022 603.215 20.4986 604.359 19.0899C605.078 18.2046 605.459 16.8461 605.459 14.8101C605.459 12.62 605.183 11.1324 604.505 10.2722C603.53 9.0212 601.643 8.80972 598.785 8.57673L598.782 8.58031Z" fill="#ABB7C2"/>
<path d="M611.621 12.3117H620.097V8.63408H611.621V4.30047H620.647V0.493777H607.936V20.789H620.796V16.9823H611.621V12.3117Z" fill="#ABB7C2"/>
<path d="M634.863 13.3799C634.863 16.3012 634.313 17.1615 630.942 17.1615C627.572 17.1615 627.045 16.3012 627.045 13.3799V0.493777H623.337V14.1398C623.337 18.8605 625.031 21.0291 630.942 21.0291C636.854 21.0291 638.569 18.8641 638.569 14.1398V0.493777H634.86V13.3835L634.863 13.3799Z" fill="#ABB7C2"/>
<path d="M649.184 8.58031C646.62 8.37242 645.668 8.37242 645.138 7.72004C644.905 7.43329 644.821 6.96372 644.821 6.18231C644.821 5.50485 644.905 5.00661 645.138 4.71985C645.604 4.14634 646.535 3.98862 648.252 3.98862C649.97 3.98862 650.901 4.14634 651.367 4.71985C651.643 5.06038 651.728 5.68407 651.728 6.39021V6.75582H655.328V6.4153C655.328 4.40801 655.116 2.92045 654.333 1.95265C653.294 0.647908 651.451 0.257202 648.232 0.257202C645.266 0.257202 643.38 0.726766 642.256 2.08169C641.45 3.04591 641.177 4.53346 641.177 6.38663C641.177 8.57673 641.514 9.80261 642.172 10.6378C643.039 11.7597 644.503 12.2293 647.173 12.4121C650.243 12.62 651.262 12.5949 651.833 13.3261C652.086 13.638 652.17 14.1864 652.17 14.9965C652.17 15.6238 652.086 16.1973 651.833 16.5091C651.346 17.1077 650.351 17.2655 648.401 17.2655C646.451 17.2655 645.604 17.1615 645.074 16.5091C644.797 16.1686 644.693 15.6238 644.693 14.7599V14.2653H641.048V14.7886C641.048 16.8748 641.366 18.3372 642.149 19.3014C643.208 20.6062 644.733 21.022 648.462 21.022C651.681 21.022 653.611 20.4986 654.755 19.0899C655.474 18.2046 655.858 16.8461 655.858 14.8101C655.858 12.62 655.582 11.1324 654.903 10.2722C653.928 9.0212 652.042 8.80972 649.184 8.57673V8.58031Z" fill="#ABB7C2"/>
<path d="M591.936 24.2444H590.743V23.7175H593.604V24.2444H592.411V27.7823H591.936V24.2444Z" fill="#ABB7C2"/>
<path d="M603.946 23.7139H604.601L605.998 27.7823H605.488L605.186 26.8897H603.355L603.052 27.7823H602.552L603.946 23.7139ZM605.011 26.3628L604.275 24.1978H604.266L603.53 26.3628H605.011Z" fill="#ABB7C2"/>
<path d="M615.722 23.7139H616.197V27.2518H618.013V27.7787H615.722V23.7103V23.7139Z" fill="#ABB7C2"/>
<path d="M627.805 23.7139H630.256V24.2408H628.279V25.4237H630.157V25.9506H628.279V27.2518H630.27V27.7787H627.805V23.7103V23.7139Z" fill="#ABB7C2"/>
<path d="M640.213 23.7139H640.9L642.795 27.2052H642.798V23.7139H643.246V27.7823H642.559L640.67 24.291H640.667V27.7823H640.213V23.7139Z" fill="#ABB7C2"/>
<path d="M654.231 24.2444H653.038V23.7175H655.899V24.2444H654.705V27.7823H654.231V24.2444Z" fill="#ABB7C2"/>
<path d="M798.402 0.945418C797.098 0.945418 796.804 1.31462 796.804 2.85952C796.804 4.40442 797.098 4.77362 798.402 4.77362C799.706 4.77362 800 4.40442 800 2.85952C800 1.31462 799.7 0.945418 798.402 0.945418ZM798.402 4.4331C797.273 4.4331 797.098 4.19294 797.098 2.8631C797.098 1.53327 797.273 1.28236 798.402 1.28236C799.531 1.28236 799.706 1.52969 799.706 2.8631C799.706 4.19652 799.531 4.4331 798.402 4.4331Z" fill="#ABB7C2"/>
<path d="M799.211 2.3792C799.211 1.91681 799.016 1.72683 798.501 1.72683H797.677V3.99221H797.963V3.1176H798.521C798.856 3.1176 798.92 3.19646 798.92 3.54773V3.99579H799.205V3.47246C799.205 3.12118 799.121 2.99214 798.9 2.94913V2.94196C799.115 2.88103 799.214 2.72689 799.214 2.38279L799.211 2.3792ZM798.521 2.79858H797.963V2.04226H798.501C798.842 2.04226 798.926 2.11037 798.926 2.39354C798.926 2.7018 798.821 2.79858 798.521 2.79858Z" fill="#ABB7C2"/>
<path d="M720.509 1.91681C718.189 1.91681 716.087 3.3721 714.882 5.81311L712.752 10.2758H717.095L709.905 23.6422L712.1 23.6565L720.494 8.02831H715.936L716.419 7.03183L716.44 6.99598C717.31 5.22168 718.832 4.16426 720.512 4.16426C723.134 4.16426 725.268 6.79167 725.268 10.0213C725.268 13.2509 723.134 15.8783 720.512 15.8783C719.778 15.8783 719.074 15.6775 718.419 15.2832L717.616 17.3013C718.521 17.8497 719.496 18.1257 720.512 18.1257C724.141 18.1257 727.093 14.4911 727.093 10.0213C727.093 5.55145 724.141 1.91681 720.512 1.91681H720.509Z" fill="#ABB7C2"/>
<path d="M713.447 11.7024H709.044C708.517 10.731 708.24 9.60188 708.24 8.41543C708.24 5.13565 710.409 2.46523 713.072 2.46523C713.794 2.46523 714.495 2.66237 715.139 3.03516C715.534 2.56918 716.076 2.01359 716.716 1.55478C715.633 0.680169 714.373 0.217773 713.072 0.217773C710.429 0.217773 708.141 2.12471 707.067 4.87757C706.674 4.7772 706.273 4.72702 705.862 4.72702C702.628 4.72702 700 7.96379 700 11.9461C700 15.9285 702.628 19.1652 705.865 19.1652L710.19 19.1509L713.447 11.7024ZM705.862 16.9178C703.635 16.9178 701.825 14.6882 701.825 11.9461C701.825 9.20401 703.635 6.97448 705.862 6.97448C706.08 6.97448 706.296 6.99598 706.508 7.039C706.447 7.48705 706.415 7.94587 706.415 8.41543C706.415 10.2686 706.93 12.0823 707.868 13.5269L708.141 13.9498H710.251L708.854 16.907L705.865 16.9178H705.862Z" fill="#ABB7C2"/>
<path d="M738.782 8.58031C736.218 8.37242 735.266 8.37242 734.736 7.72004C734.503 7.43329 734.419 6.96372 734.419 6.18231C734.419 5.50485 734.503 5.00661 734.736 4.71985C735.202 4.14634 736.133 3.98862 737.851 3.98862C739.568 3.98862 740.499 4.14634 740.965 4.71985C741.242 5.06038 741.326 5.68407 741.326 6.39021V6.75582H744.927V6.4153C744.927 4.40801 744.714 2.92045 743.931 1.95265C742.892 0.647908 741.05 0.257202 737.83 0.257202C734.864 0.257202 732.978 0.726766 731.858 2.08169C731.051 3.04591 730.778 4.53346 730.778 6.38663C730.778 8.57673 731.115 9.80261 731.773 10.6378C732.641 11.7597 734.105 12.2293 736.774 12.4121C739.845 12.62 740.863 12.5949 741.434 13.3261C741.687 13.638 741.771 14.1864 741.771 14.9965C741.771 15.6238 741.687 16.1973 741.434 16.5091C740.948 17.1077 739.949 17.2655 738.002 17.2655C736.055 17.2655 735.205 17.1615 734.675 16.5091C734.399 16.1686 734.294 15.6238 734.294 14.7599V14.2653H730.65V14.7886C730.65 16.8748 730.967 18.3372 731.753 19.3014C732.812 20.6062 734.338 21.022 738.066 21.022C741.285 21.022 743.215 20.4986 744.359 19.0899C745.078 18.2046 745.459 16.8461 745.459 14.8101C745.459 12.62 745.183 11.1324 744.505 10.2722C743.53 9.0212 741.643 8.80972 738.785 8.57673L738.782 8.58031Z" fill="#ABB7C2"/>
<path d="M751.621 12.3117H760.097V8.63408H751.621V4.30047H760.647V0.493777H747.936V20.789H760.796V16.9823H751.621V12.3117Z" fill="#ABB7C2"/>
<path d="M774.863 13.3799C774.863 16.3012 774.313 17.1615 770.942 17.1615C767.572 17.1615 767.045 16.3012 767.045 13.3799V0.493777H763.337V14.1398C763.337 18.8605 765.031 21.0291 770.942 21.0291C776.854 21.0291 778.569 18.8641 778.569 14.1398V0.493777H774.86V13.3835L774.863 13.3799Z" fill="#ABB7C2"/>
<path d="M789.184 8.58031C786.62 8.37242 785.668 8.37242 785.138 7.72004C784.905 7.43329 784.821 6.96372 784.821 6.18231C784.821 5.50485 784.905 5.00661 785.138 4.71985C785.604 4.14634 786.535 3.98862 788.252 3.98862C789.97 3.98862 790.901 4.14634 791.367 4.71985C791.643 5.06038 791.728 5.68407 791.728 6.39021V6.75582H795.328V6.4153C795.328 4.40801 795.116 2.92045 794.333 1.95265C793.294 0.647908 791.451 0.257202 788.232 0.257202C785.266 0.257202 783.38 0.726766 782.256 2.08169C781.45 3.04591 781.177 4.53346 781.177 6.38663C781.177 8.57673 781.514 9.80261 782.172 10.6378C783.039 11.7597 784.503 12.2293 787.173 12.4121C790.243 12.62 791.262 12.5949 791.833 13.3261C792.086 13.638 792.17 14.1864 792.17 14.9965C792.17 15.6238 792.086 16.1973 791.833 16.5091C791.346 17.1077 790.351 17.2655 788.401 17.2655C786.451 17.2655 785.604 17.1615 785.074 16.5091C784.797 16.1686 784.693 15.6238 784.693 14.7599V14.2653H781.048V14.7886C781.048 16.8748 781.366 18.3372 782.149 19.3014C783.208 20.6062 784.733 21.022 788.462 21.022C791.681 21.022 793.611 20.4986 794.755 19.0899C795.474 18.2046 795.858 16.8461 795.858 14.8101C795.858 12.62 795.582 11.1324 794.903 10.2722C793.928 9.0212 792.042 8.80972 789.184 8.57673V8.58031Z" fill="#ABB7C2"/>
<path d="M731.936 24.2444H730.743V23.7175H733.604V24.2444H732.411V27.7823H731.936V24.2444Z" fill="#ABB7C2"/>
<path d="M743.946 23.7139H744.601L745.998 27.7823H745.488L745.186 26.8897H743.355L743.052 27.7823H742.552L743.946 23.7139ZM745.011 26.3628L744.275 24.1978H744.266L743.53 26.3628H745.011Z" fill="#ABB7C2"/>
<path d="M755.722 23.7139H756.197V27.2518H758.013V27.7787H755.722V23.7103V23.7139Z" fill="#ABB7C2"/>
<path d="M767.805 23.7139H770.256V24.2408H768.279V25.4237H770.157V25.9506H768.279V27.2518H770.27V27.7787H767.805V23.7103V23.7139Z" fill="#ABB7C2"/>
<path d="M780.213 23.7139H780.9L782.795 27.2052H782.798V23.7139H783.246V27.7823H782.559L780.67 24.291H780.667V27.7823H780.213V23.7139Z" fill="#ABB7C2"/>
<path d="M794.231 24.2444H793.038V23.7175H795.899V24.2444H794.705V27.7823H794.231V24.2444Z" fill="#ABB7C2"/>
<path d="M938.402 0.945418C937.098 0.945418 936.804 1.31462 936.804 2.85952C936.804 4.40442 937.098 4.77362 938.402 4.77362C939.706 4.77362 940 4.40442 940 2.85952C940 1.31462 939.7 0.945418 938.402 0.945418ZM938.402 4.4331C937.273 4.4331 937.098 4.19294 937.098 2.8631C937.098 1.53327 937.273 1.28236 938.402 1.28236C939.531 1.28236 939.706 1.52969 939.706 2.8631C939.706 4.19652 939.531 4.4331 938.402 4.4331Z" fill="#ABB7C2"/>
<path d="M939.211 2.3792C939.211 1.91681 939.016 1.72683 938.501 1.72683H937.677V3.99221H937.963V3.1176H938.521C938.856 3.1176 938.92 3.19646 938.92 3.54773V3.99579H939.205V3.47246C939.205 3.12118 939.121 2.99214 938.9 2.94913V2.94196C939.115 2.88103 939.214 2.72689 939.214 2.38279L939.211 2.3792ZM938.521 2.79858H937.963V2.04226H938.501C938.842 2.04226 938.926 2.11037 938.926 2.39354C938.926 2.7018 938.821 2.79858 938.521 2.79858Z" fill="#ABB7C2"/>
<path d="M860.509 1.91681C858.189 1.91681 856.087 3.3721 854.882 5.81311L852.752 10.2758H857.095L849.905 23.6422L852.1 23.6565L860.494 8.02831H855.936L856.419 7.03183L856.44 6.99598C857.31 5.22168 858.832 4.16426 860.512 4.16426C863.134 4.16426 865.268 6.79167 865.268 10.0213C865.268 13.2509 863.134 15.8783 860.512 15.8783C859.778 15.8783 859.074 15.6775 858.419 15.2832L857.616 17.3013C858.521 17.8497 859.496 18.1257 860.512 18.1257C864.141 18.1257 867.093 14.4911 867.093 10.0213C867.093 5.55145 864.141 1.91681 860.512 1.91681H860.509Z" fill="#ABB7C2"/>
<path d="M853.447 11.7024H849.044C848.517 10.731 848.24 9.60188 848.24 8.41543C848.24 5.13565 850.409 2.46523 853.072 2.46523C853.794 2.46523 854.495 2.66237 855.139 3.03516C855.534 2.56918 856.076 2.01359 856.716 1.55478C855.633 0.680169 854.373 0.217773 853.072 0.217773C850.429 0.217773 848.141 2.12471 847.067 4.87757C846.674 4.7772 846.273 4.72702 845.862 4.72702C842.628 4.72702 840 7.96379 840 11.9461C840 15.9285 842.628 19.1652 845.865 19.1652L850.19 19.1509L853.447 11.7024ZM845.862 16.9178C843.635 16.9178 841.825 14.6882 841.825 11.9461C841.825 9.20401 843.635 6.97448 845.862 6.97448C846.08 6.97448 846.296 6.99598 846.508 7.039C846.447 7.48705 846.415 7.94587 846.415 8.41543C846.415 10.2686 846.93 12.0823 847.868 13.5269L848.141 13.9498H850.251L848.854 16.907L845.865 16.9178H845.862Z" fill="#ABB7C2"/>
<path d="M878.782 8.58031C876.218 8.37242 875.266 8.37242 874.736 7.72004C874.503 7.43329 874.419 6.96372 874.419 6.18231C874.419 5.50485 874.503 5.00661 874.736 4.71985C875.202 4.14634 876.133 3.98862 877.851 3.98862C879.568 3.98862 880.499 4.14634 880.965 4.71985C881.242 5.06038 881.326 5.68407 881.326 6.39021V6.75582H884.927V6.4153C884.927 4.40801 884.714 2.92045 883.931 1.95265C882.892 0.647908 881.05 0.257202 877.83 0.257202C874.864 0.257202 872.978 0.726766 871.858 2.08169C871.051 3.04591 870.778 4.53346 870.778 6.38663C870.778 8.57673 871.115 9.80261 871.773 10.6378C872.641 11.7597 874.105 12.2293 876.774 12.4121C879.845 12.62 880.863 12.5949 881.434 13.3261C881.687 13.638 881.771 14.1864 881.771 14.9965C881.771 15.6238 881.687 16.1973 881.434 16.5091C880.948 17.1077 879.949 17.2655 878.002 17.2655C876.055 17.2655 875.205 17.1615 874.675 16.5091C874.399 16.1686 874.294 15.6238 874.294 14.7599V14.2653H870.65V14.7886C870.65 16.8748 870.967 18.3372 871.753 19.3014C872.812 20.6062 874.338 21.022 878.066 21.022C881.285 21.022 883.215 20.4986 884.359 19.0899C885.078 18.2046 885.459 16.8461 885.459 14.8101C885.459 12.62 885.183 11.1324 884.505 10.2722C883.53 9.0212 881.643 8.80972 878.785 8.57673L878.782 8.58031Z" fill="#ABB7C2"/>
<path d="M891.621 12.3117H900.097V8.63408H891.621V4.30047H900.647V0.493777H887.936V20.789H900.796V16.9823H891.621V12.3117Z" fill="#ABB7C2"/>
<path d="M914.863 13.3799C914.863 16.3012 914.313 17.1615 910.942 17.1615C907.572 17.1615 907.045 16.3012 907.045 13.3799V0.493777H903.337V14.1398C903.337 18.8605 905.031 21.0291 910.942 21.0291C916.854 21.0291 918.569 18.8641 918.569 14.1398V0.493777H914.86V13.3835L914.863 13.3799Z" fill="#ABB7C2"/>
<path d="M929.184 8.58031C926.62 8.37242 925.668 8.37242 925.138 7.72004C924.905 7.43329 924.821 6.96372 924.821 6.18231C924.821 5.50485 924.905 5.00661 925.138 4.71985C925.604 4.14634 926.535 3.98862 928.252 3.98862C929.97 3.98862 930.901 4.14634 931.367 4.71985C931.643 5.06038 931.728 5.68407 931.728 6.39021V6.75582H935.328V6.4153C935.328 4.40801 935.116 2.92045 934.333 1.95265C933.294 0.647908 931.451 0.257202 928.232 0.257202C925.266 0.257202 923.38 0.726766 922.256 2.08169C921.45 3.04591 921.177 4.53346 921.177 6.38663C921.177 8.57673 921.514 9.80261 922.172 10.6378C923.039 11.7597 924.503 12.2293 927.173 12.4121C930.243 12.62 931.262 12.5949 931.833 13.3261C932.086 13.638 932.17 14.1864 932.17 14.9965C932.17 15.6238 932.086 16.1973 931.833 16.5091C931.346 17.1077 930.351 17.2655 928.401 17.2655C926.451 17.2655 925.604 17.1615 925.074 16.5091C924.797 16.1686 924.693 15.6238 924.693 14.7599V14.2653H921.048V14.7886C921.048 16.8748 921.366 18.3372 922.149 19.3014C923.208 20.6062 924.733 21.022 928.462 21.022C931.681 21.022 933.611 20.4986 934.755 19.0899C935.474 18.2046 935.858 16.8461 935.858 14.8101C935.858 12.62 935.582 11.1324 934.903 10.2722C933.928 9.0212 932.042 8.80972 929.184 8.57673V8.58031Z" fill="#ABB7C2"/>
<path d="M871.936 24.2444H870.743V23.7175H873.604V24.2444H872.411V27.7823H871.936V24.2444Z" fill="#ABB7C2"/>
<path d="M883.946 23.7139H884.601L885.998 27.7823H885.488L885.186 26.8897H883.355L883.052 27.7823H882.552L883.946 23.7139ZM885.011 26.3628L884.275 24.1978H884.266L883.53 26.3628H885.011Z" fill="#ABB7C2"/>
<path d="M895.722 23.7139H896.197V27.2518H898.013V27.7787H895.722V23.7103V23.7139Z" fill="#ABB7C2"/>
<path d="M907.805 23.7139H910.256V24.2408H908.279V25.4237H910.157V25.9506H908.279V27.2518H910.27V27.7787H907.805V23.7103V23.7139Z" fill="#ABB7C2"/>
<path d="M920.213 23.7139H920.9L922.795 27.2052H922.798V23.7139H923.246V27.7823H922.559L920.67 24.291H920.667V27.7823H920.213V23.7139Z" fill="#ABB7C2"/>
<path d="M934.231 24.2444H933.038V23.7175H935.899V24.2444H934.705V27.7823H934.231V24.2444Z" fill="#ABB7C2"/>
<path d="M1078.4 0.945418C1077.1 0.945418 1076.8 1.31462 1076.8 2.85952C1076.8 4.40442 1077.1 4.77362 1078.4 4.77362C1079.71 4.77362 1080 4.40442 1080 2.85952C1080 1.31462 1079.7 0.945418 1078.4 0.945418ZM1078.4 4.4331C1077.27 4.4331 1077.1 4.19294 1077.1 2.8631C1077.1 1.53327 1077.27 1.28236 1078.4 1.28236C1079.53 1.28236 1079.71 1.52969 1079.71 2.8631C1079.71 4.19652 1079.53 4.4331 1078.4 4.4331Z" fill="#ABB7C2"/>
<path d="M1079.21 2.3792C1079.21 1.91681 1079.02 1.72683 1078.5 1.72683H1077.68V3.99221H1077.96V3.1176H1078.52C1078.86 3.1176 1078.92 3.19646 1078.92 3.54773V3.99579H1079.21V3.47246C1079.21 3.12118 1079.12 2.99214 1078.9 2.94913V2.94196C1079.12 2.88103 1079.21 2.72689 1079.21 2.38279L1079.21 2.3792ZM1078.52 2.79858H1077.96V2.04226H1078.5C1078.84 2.04226 1078.93 2.11037 1078.93 2.39354C1078.93 2.7018 1078.82 2.79858 1078.52 2.79858Z" fill="#ABB7C2"/>
<path d="M1000.51 1.91681C998.189 1.91681 996.087 3.3721 994.882 5.81311L992.752 10.2758H997.095L989.905 23.6422L992.1 23.6565L1000.49 8.02831H995.936L996.419 7.03183L996.44 6.99598C997.31 5.22168 998.832 4.16426 1000.51 4.16426C1003.13 4.16426 1005.27 6.79167 1005.27 10.0213C1005.27 13.2509 1003.13 15.8783 1000.51 15.8783C999.778 15.8783 999.074 15.6775 998.419 15.2832L997.616 17.3013C998.521 17.8497 999.496 18.1257 1000.51 18.1257C1004.14 18.1257 1007.09 14.4911 1007.09 10.0213C1007.09 5.55145 1004.14 1.91681 1000.51 1.91681H1000.51Z" fill="#ABB7C2"/>
<path d="M993.447 11.7024H989.044C988.517 10.731 988.24 9.60188 988.24 8.41543C988.24 5.13565 990.409 2.46523 993.072 2.46523C993.794 2.46523 994.495 2.66237 995.139 3.03516C995.534 2.56918 996.076 2.01359 996.716 1.55478C995.633 0.680169 994.373 0.217773 993.072 0.217773C990.429 0.217773 988.141 2.12471 987.067 4.87757C986.674 4.7772 986.273 4.72702 985.862 4.72702C982.628 4.72702 980 7.96379 980 11.9461C980 15.9285 982.628 19.1652 985.865 19.1652L990.19 19.1509L993.447 11.7024ZM985.862 16.9178C983.635 16.9178 981.825 14.6882 981.825 11.9461C981.825 9.20401 983.635 6.97448 985.862 6.97448C986.08 6.97448 986.296 6.99598 986.508 7.039C986.447 7.48705 986.415 7.94587 986.415 8.41543C986.415 10.2686 986.93 12.0823 987.868 13.5269L988.141 13.9498H990.251L988.854 16.907L985.865 16.9178H985.862Z" fill="#ABB7C2"/>
<path d="M1018.78 8.58031C1016.22 8.37242 1015.27 8.37242 1014.74 7.72004C1014.5 7.43329 1014.42 6.96372 1014.42 6.18231C1014.42 5.50485 1014.5 5.00661 1014.74 4.71985C1015.2 4.14634 1016.13 3.98862 1017.85 3.98862C1019.57 3.98862 1020.5 4.14634 1020.97 4.71985C1021.24 5.06038 1021.33 5.68407 1021.33 6.39021V6.75582H1024.93V6.4153C1024.93 4.40801 1024.71 2.92045 1023.93 1.95265C1022.89 0.647908 1021.05 0.257202 1017.83 0.257202C1014.86 0.257202 1012.98 0.726766 1011.86 2.08169C1011.05 3.04591 1010.78 4.53346 1010.78 6.38663C1010.78 8.57673 1011.12 9.80261 1011.77 10.6378C1012.64 11.7597 1014.1 12.2293 1016.77 12.4121C1019.84 12.62 1020.86 12.5949 1021.43 13.3261C1021.69 13.638 1021.77 14.1864 1021.77 14.9965C1021.77 15.6238 1021.69 16.1973 1021.43 16.5091C1020.95 17.1077 1019.95 17.2655 1018 17.2655C1016.05 17.2655 1015.2 17.1615 1014.68 16.5091C1014.4 16.1686 1014.29 15.6238 1014.29 14.7599V14.2653H1010.65V14.7886C1010.65 16.8748 1010.97 18.3372 1011.75 19.3014C1012.81 20.6062 1014.34 21.022 1018.07 21.022C1021.29 21.022 1023.22 20.4986 1024.36 19.0899C1025.08 18.2046 1025.46 16.8461 1025.46 14.8101C1025.46 12.62 1025.18 11.1324 1024.5 10.2722C1023.53 9.0212 1021.64 8.80972 1018.79 8.57673L1018.78 8.58031Z" fill="#ABB7C2"/>
<path d="M1031.62 12.3117H1040.1V8.63408H1031.62V4.30047H1040.65V0.493777H1027.94V20.789H1040.8V16.9823H1031.62V12.3117Z" fill="#ABB7C2"/>
<path d="M1054.86 13.3799C1054.86 16.3012 1054.31 17.1615 1050.94 17.1615C1047.57 17.1615 1047.05 16.3012 1047.05 13.3799V0.493777H1043.34V14.1398C1043.34 18.8605 1045.03 21.0291 1050.94 21.0291C1056.85 21.0291 1058.57 18.8641 1058.57 14.1398V0.493777H1054.86V13.3835L1054.86 13.3799Z" fill="#ABB7C2"/>
<path d="M1069.18 8.58031C1066.62 8.37242 1065.67 8.37242 1065.14 7.72004C1064.91 7.43329 1064.82 6.96372 1064.82 6.18231C1064.82 5.50485 1064.91 5.00661 1065.14 4.71985C1065.6 4.14634 1066.54 3.98862 1068.25 3.98862C1069.97 3.98862 1070.9 4.14634 1071.37 4.71985C1071.64 5.06038 1071.73 5.68407 1071.73 6.39021V6.75582H1075.33V6.4153C1075.33 4.40801 1075.12 2.92045 1074.33 1.95265C1073.29 0.647908 1071.45 0.257202 1068.23 0.257202C1065.27 0.257202 1063.38 0.726766 1062.26 2.08169C1061.45 3.04591 1061.18 4.53346 1061.18 6.38663C1061.18 8.57673 1061.51 9.80261 1062.17 10.6378C1063.04 11.7597 1064.5 12.2293 1067.17 12.4121C1070.24 12.62 1071.26 12.5949 1071.83 13.3261C1072.09 13.638 1072.17 14.1864 1072.17 14.9965C1072.17 15.6238 1072.09 16.1973 1071.83 16.5091C1071.35 17.1077 1070.35 17.2655 1068.4 17.2655C1066.45 17.2655 1065.6 17.1615 1065.07 16.5091C1064.8 16.1686 1064.69 15.6238 1064.69 14.7599V14.2653H1061.05V14.7886C1061.05 16.8748 1061.37 18.3372 1062.15 19.3014C1063.21 20.6062 1064.73 21.022 1068.46 21.022C1071.68 21.022 1073.61 20.4986 1074.75 19.0899C1075.47 18.2046 1075.86 16.8461 1075.86 14.8101C1075.86 12.62 1075.58 11.1324 1074.9 10.2722C1073.93 9.0212 1072.04 8.80972 1069.18 8.57673V8.58031Z" fill="#ABB7C2"/>
<path d="M1011.94 24.2444H1010.74V23.7175H1013.6V24.2444H1012.41V27.7823H1011.94V24.2444Z" fill="#ABB7C2"/>
<path d="M1023.95 23.7139H1024.6L1026 27.7823H1025.49L1025.19 26.8897H1023.35L1023.05 27.7823H1022.55L1023.95 23.7139ZM1025.01 26.3628L1024.27 24.1978H1024.27L1023.53 26.3628H1025.01Z" fill="#ABB7C2"/>
<path d="M1035.72 23.7139H1036.2V27.2518H1038.01V27.7787H1035.72V23.7103V23.7139Z" fill="#ABB7C2"/>
<path d="M1047.8 23.7139H1050.26V24.2408H1048.28V25.4237H1050.16V25.9506H1048.28V27.2518H1050.27V27.7787H1047.8V23.7103V23.7139Z" fill="#ABB7C2"/>
<path d="M1060.21 23.7139H1060.9L1062.79 27.2052H1062.8V23.7139H1063.25V27.7823H1062.56L1060.67 24.291H1060.67V27.7823H1060.21V23.7139Z" fill="#ABB7C2"/>
<path d="M1074.23 24.2444H1073.04V23.7175H1075.9V24.2444H1074.71V27.7823H1074.23V24.2444Z" fill="#ABB7C2"/>
<path d="M1218.4 0.945418C1217.1 0.945418 1216.8 1.31462 1216.8 2.85952C1216.8 4.40442 1217.1 4.77362 1218.4 4.77362C1219.71 4.77362 1220 4.40442 1220 2.85952C1220 1.31462 1219.7 0.945418 1218.4 0.945418ZM1218.4 4.4331C1217.27 4.4331 1217.1 4.19294 1217.1 2.8631C1217.1 1.53327 1217.27 1.28236 1218.4 1.28236C1219.53 1.28236 1219.71 1.52969 1219.71 2.8631C1219.71 4.19652 1219.53 4.4331 1218.4 4.4331Z" fill="#ABB7C2"/>
<path d="M1219.21 2.3792C1219.21 1.91681 1219.02 1.72683 1218.5 1.72683H1217.68V3.99221H1217.96V3.1176H1218.52C1218.86 3.1176 1218.92 3.19646 1218.92 3.54773V3.99579H1219.21V3.47246C1219.21 3.12118 1219.12 2.99214 1218.9 2.94913V2.94196C1219.12 2.88103 1219.21 2.72689 1219.21 2.38279L1219.21 2.3792ZM1218.52 2.79858H1217.96V2.04226H1218.5C1218.84 2.04226 1218.93 2.11037 1218.93 2.39354C1218.93 2.7018 1218.82 2.79858 1218.52 2.79858Z" fill="#ABB7C2"/>
<path d="M1140.51 1.91681C1138.19 1.91681 1136.09 3.3721 1134.88 5.81311L1132.75 10.2758H1137.09L1129.91 23.6422L1132.1 23.6565L1140.49 8.02831H1135.94L1136.42 7.03183L1136.44 6.99598C1137.31 5.22168 1138.83 4.16426 1140.51 4.16426C1143.13 4.16426 1145.27 6.79167 1145.27 10.0213C1145.27 13.2509 1143.13 15.8783 1140.51 15.8783C1139.78 15.8783 1139.07 15.6775 1138.42 15.2832L1137.62 17.3013C1138.52 17.8497 1139.5 18.1257 1140.51 18.1257C1144.14 18.1257 1147.09 14.4911 1147.09 10.0213C1147.09 5.55145 1144.14 1.91681 1140.51 1.91681H1140.51Z" fill="#ABB7C2"/>
<path d="M1133.45 11.7024H1129.04C1128.52 10.731 1128.24 9.60188 1128.24 8.41543C1128.24 5.13565 1130.41 2.46523 1133.07 2.46523C1133.79 2.46523 1134.5 2.66237 1135.14 3.03516C1135.53 2.56918 1136.08 2.01359 1136.72 1.55478C1135.63 0.680169 1134.37 0.217773 1133.07 0.217773C1130.43 0.217773 1128.14 2.12471 1127.07 4.87757C1126.67 4.7772 1126.27 4.72702 1125.86 4.72702C1122.63 4.72702 1120 7.96379 1120 11.9461C1120 15.9285 1122.63 19.1652 1125.87 19.1652L1130.19 19.1509L1133.45 11.7024ZM1125.86 16.9178C1123.64 16.9178 1121.83 14.6882 1121.83 11.9461C1121.83 9.20401 1123.64 6.97448 1125.86 6.97448C1126.08 6.97448 1126.3 6.99598 1126.51 7.039C1126.45 7.48705 1126.42 7.94587 1126.42 8.41543C1126.42 10.2686 1126.93 12.0823 1127.87 13.5269L1128.14 13.9498H1130.25L1128.85 16.907L1125.87 16.9178H1125.86Z" fill="#ABB7C2"/>
<path d="M1158.78 8.58031C1156.22 8.37242 1155.27 8.37242 1154.74 7.72004C1154.5 7.43329 1154.42 6.96372 1154.42 6.18231C1154.42 5.50485 1154.5 5.00661 1154.74 4.71985C1155.2 4.14634 1156.13 3.98862 1157.85 3.98862C1159.57 3.98862 1160.5 4.14634 1160.97 4.71985C1161.24 5.06038 1161.33 5.68407 1161.33 6.39021V6.75582H1164.93V6.4153C1164.93 4.40801 1164.71 2.92045 1163.93 1.95265C1162.89 0.647908 1161.05 0.257202 1157.83 0.257202C1154.86 0.257202 1152.98 0.726766 1151.86 2.08169C1151.05 3.04591 1150.78 4.53346 1150.78 6.38663C1150.78 8.57673 1151.12 9.80261 1151.77 10.6378C1152.64 11.7597 1154.1 12.2293 1156.77 12.4121C1159.84 12.62 1160.86 12.5949 1161.43 13.3261C1161.69 13.638 1161.77 14.1864 1161.77 14.9965C1161.77 15.6238 1161.69 16.1973 1161.43 16.5091C1160.95 17.1077 1159.95 17.2655 1158 17.2655C1156.05 17.2655 1155.2 17.1615 1154.68 16.5091C1154.4 16.1686 1154.29 15.6238 1154.29 14.7599V14.2653H1150.65V14.7886C1150.65 16.8748 1150.97 18.3372 1151.75 19.3014C1152.81 20.6062 1154.34 21.022 1158.07 21.022C1161.29 21.022 1163.22 20.4986 1164.36 19.0899C1165.08 18.2046 1165.46 16.8461 1165.46 14.8101C1165.46 12.62 1165.18 11.1324 1164.5 10.2722C1163.53 9.0212 1161.64 8.80972 1158.79 8.57673L1158.78 8.58031Z" fill="#ABB7C2"/>
<path d="M1171.62 12.3117H1180.1V8.63408H1171.62V4.30047H1180.65V0.493777H1167.94V20.789H1180.8V16.9823H1171.62V12.3117Z" fill="#ABB7C2"/>
<path d="M1194.86 13.3799C1194.86 16.3012 1194.31 17.1615 1190.94 17.1615C1187.57 17.1615 1187.05 16.3012 1187.05 13.3799V0.493777H1183.34V14.1398C1183.34 18.8605 1185.03 21.0291 1190.94 21.0291C1196.85 21.0291 1198.57 18.8641 1198.57 14.1398V0.493777H1194.86V13.3835L1194.86 13.3799Z" fill="#ABB7C2"/>
<path d="M1209.18 8.58031C1206.62 8.37242 1205.67 8.37242 1205.14 7.72004C1204.91 7.43329 1204.82 6.96372 1204.82 6.18231C1204.82 5.50485 1204.91 5.00661 1205.14 4.71985C1205.6 4.14634 1206.54 3.98862 1208.25 3.98862C1209.97 3.98862 1210.9 4.14634 1211.37 4.71985C1211.64 5.06038 1211.73 5.68407 1211.73 6.39021V6.75582H1215.33V6.4153C1215.33 4.40801 1215.12 2.92045 1214.33 1.95265C1213.29 0.647908 1211.45 0.257202 1208.23 0.257202C1205.27 0.257202 1203.38 0.726766 1202.26 2.08169C1201.45 3.04591 1201.18 4.53346 1201.18 6.38663C1201.18 8.57673 1201.51 9.80261 1202.17 10.6378C1203.04 11.7597 1204.5 12.2293 1207.17 12.4121C1210.24 12.62 1211.26 12.5949 1211.83 13.3261C1212.09 13.638 1212.17 14.1864 1212.17 14.9965C1212.17 15.6238 1212.09 16.1973 1211.83 16.5091C1211.35 17.1077 1210.35 17.2655 1208.4 17.2655C1206.45 17.2655 1205.6 17.1615 1205.07 16.5091C1204.8 16.1686 1204.69 15.6238 1204.69 14.7599V14.2653H1201.05V14.7886C1201.05 16.8748 1201.37 18.3372 1202.15 19.3014C1203.21 20.6062 1204.73 21.022 1208.46 21.022C1211.68 21.022 1213.61 20.4986 1214.75 19.0899C1215.47 18.2046 1215.86 16.8461 1215.86 14.8101C1215.86 12.62 1215.58 11.1324 1214.9 10.2722C1213.93 9.0212 1212.04 8.80972 1209.18 8.57673V8.58031Z" fill="#ABB7C2"/>
<path d="M1151.94 24.2444H1150.74V23.7175H1153.6V24.2444H1152.41V27.7823H1151.94V24.2444Z" fill="#ABB7C2"/>
<path d="M1163.95 23.7139H1164.6L1166 27.7823H1165.49L1165.19 26.8897H1163.35L1163.05 27.7823H1162.55L1163.95 23.7139ZM1165.01 26.3628L1164.27 24.1978H1164.27L1163.53 26.3628H1165.01Z" fill="#ABB7C2"/>
<path d="M1175.72 23.7139H1176.2V27.2518H1178.01V27.7787H1175.72V23.7103V23.7139Z" fill="#ABB7C2"/>
<path d="M1187.8 23.7139H1190.26V24.2408H1188.28V25.4237H1190.16V25.9506H1188.28V27.2518H1190.27V27.7787H1187.8V23.7103V23.7139Z" fill="#ABB7C2"/>
<path d="M1200.21 23.7139H1200.9L1202.79 27.2052H1202.8V23.7139H1203.25V27.7823H1202.56L1200.67 24.291H1200.67V27.7823H1200.21V23.7139Z" fill="#ABB7C2"/>
<path d="M1214.23 24.2444H1213.04V23.7175H1215.9V24.2444H1214.71V27.7823H1214.23V24.2444Z" fill="#ABB7C2"/>
<path d="M1358.4 0.945418C1357.1 0.945418 1356.8 1.31462 1356.8 2.85952C1356.8 4.40442 1357.1 4.77362 1358.4 4.77362C1359.71 4.77362 1360 4.40442 1360 2.85952C1360 1.31462 1359.7 0.945418 1358.4 0.945418ZM1358.4 4.4331C1357.27 4.4331 1357.1 4.19294 1357.1 2.8631C1357.1 1.53327 1357.27 1.28236 1358.4 1.28236C1359.53 1.28236 1359.71 1.52969 1359.71 2.8631C1359.71 4.19652 1359.53 4.4331 1358.4 4.4331Z" fill="#ABB7C2"/>
<path d="M1359.21 2.3792C1359.21 1.91681 1359.02 1.72683 1358.5 1.72683H1357.68V3.99221H1357.96V3.1176H1358.52C1358.86 3.1176 1358.92 3.19646 1358.92 3.54773V3.99579H1359.21V3.47246C1359.21 3.12118 1359.12 2.99214 1358.9 2.94913V2.94196C1359.12 2.88103 1359.21 2.72689 1359.21 2.38279L1359.21 2.3792ZM1358.52 2.79858H1357.96V2.04226H1358.5C1358.84 2.04226 1358.93 2.11037 1358.93 2.39354C1358.93 2.7018 1358.82 2.79858 1358.52 2.79858Z" fill="#ABB7C2"/>
<path d="M1280.51 1.91681C1278.19 1.91681 1276.09 3.3721 1274.88 5.81311L1272.75 10.2758H1277.09L1269.91 23.6422L1272.1 23.6565L1280.49 8.02831H1275.94L1276.42 7.03183L1276.44 6.99598C1277.31 5.22168 1278.83 4.16426 1280.51 4.16426C1283.13 4.16426 1285.27 6.79167 1285.27 10.0213C1285.27 13.2509 1283.13 15.8783 1280.51 15.8783C1279.78 15.8783 1279.07 15.6775 1278.42 15.2832L1277.62 17.3013C1278.52 17.8497 1279.5 18.1257 1280.51 18.1257C1284.14 18.1257 1287.09 14.4911 1287.09 10.0213C1287.09 5.55145 1284.14 1.91681 1280.51 1.91681H1280.51Z" fill="#ABB7C2"/>
<path d="M1273.45 11.7024H1269.04C1268.52 10.731 1268.24 9.60188 1268.24 8.41543C1268.24 5.13565 1270.41 2.46523 1273.07 2.46523C1273.79 2.46523 1274.5 2.66237 1275.14 3.03516C1275.53 2.56918 1276.08 2.01359 1276.72 1.55478C1275.63 0.680169 1274.37 0.217773 1273.07 0.217773C1270.43 0.217773 1268.14 2.12471 1267.07 4.87757C1266.67 4.7772 1266.27 4.72702 1265.86 4.72702C1262.63 4.72702 1260 7.96379 1260 11.9461C1260 15.9285 1262.63 19.1652 1265.87 19.1652L1270.19 19.1509L1273.45 11.7024ZM1265.86 16.9178C1263.64 16.9178 1261.83 14.6882 1261.83 11.9461C1261.83 9.20401 1263.64 6.97448 1265.86 6.97448C1266.08 6.97448 1266.3 6.99598 1266.51 7.039C1266.45 7.48705 1266.42 7.94587 1266.42 8.41543C1266.42 10.2686 1266.93 12.0823 1267.87 13.5269L1268.14 13.9498H1270.25L1268.85 16.907L1265.87 16.9178H1265.86Z" fill="#ABB7C2"/>
<path d="M1298.78 8.58031C1296.22 8.37242 1295.27 8.37242 1294.74 7.72004C1294.5 7.43329 1294.42 6.96372 1294.42 6.18231C1294.42 5.50485 1294.5 5.00661 1294.74 4.71985C1295.2 4.14634 1296.13 3.98862 1297.85 3.98862C1299.57 3.98862 1300.5 4.14634 1300.97 4.71985C1301.24 5.06038 1301.33 5.68407 1301.33 6.39021V6.75582H1304.93V6.4153C1304.93 4.40801 1304.71 2.92045 1303.93 1.95265C1302.89 0.647908 1301.05 0.257202 1297.83 0.257202C1294.86 0.257202 1292.98 0.726766 1291.86 2.08169C1291.05 3.04591 1290.78 4.53346 1290.78 6.38663C1290.78 8.57673 1291.12 9.80261 1291.77 10.6378C1292.64 11.7597 1294.1 12.2293 1296.77 12.4121C1299.84 12.62 1300.86 12.5949 1301.43 13.3261C1301.69 13.638 1301.77 14.1864 1301.77 14.9965C1301.77 15.6238 1301.69 16.1973 1301.43 16.5091C1300.95 17.1077 1299.95 17.2655 1298 17.2655C1296.05 17.2655 1295.2 17.1615 1294.68 16.5091C1294.4 16.1686 1294.29 15.6238 1294.29 14.7599V14.2653H1290.65V14.7886C1290.65 16.8748 1290.97 18.3372 1291.75 19.3014C1292.81 20.6062 1294.34 21.022 1298.07 21.022C1301.29 21.022 1303.22 20.4986 1304.36 19.0899C1305.08 18.2046 1305.46 16.8461 1305.46 14.8101C1305.46 12.62 1305.18 11.1324 1304.5 10.2722C1303.53 9.0212 1301.64 8.80972 1298.79 8.57673L1298.78 8.58031Z" fill="#ABB7C2"/>
<path d="M1311.62 12.3117H1320.1V8.63408H1311.62V4.30047H1320.65V0.493777H1307.94V20.789H1320.8V16.9823H1311.62V12.3117Z" fill="#ABB7C2"/>
<path d="M1334.86 13.3799C1334.86 16.3012 1334.31 17.1615 1330.94 17.1615C1327.57 17.1615 1327.05 16.3012 1327.05 13.3799V0.493777H1323.34V14.1398C1323.34 18.8605 1325.03 21.0291 1330.94 21.0291C1336.85 21.0291 1338.57 18.8641 1338.57 14.1398V0.493777H1334.86V13.3835L1334.86 13.3799Z" fill="#ABB7C2"/>
<path d="M1349.18 8.58031C1346.62 8.37242 1345.67 8.37242 1345.14 7.72004C1344.91 7.43329 1344.82 6.96372 1344.82 6.18231C1344.82 5.50485 1344.91 5.00661 1345.14 4.71985C1345.6 4.14634 1346.54 3.98862 1348.25 3.98862C1349.97 3.98862 1350.9 4.14634 1351.37 4.71985C1351.64 5.06038 1351.73 5.68407 1351.73 6.39021V6.75582H1355.33V6.4153C1355.33 4.40801 1355.12 2.92045 1354.33 1.95265C1353.29 0.647908 1351.45 0.257202 1348.23 0.257202C1345.27 0.257202 1343.38 0.726766 1342.26 2.08169C1341.45 3.04591 1341.18 4.53346 1341.18 6.38663C1341.18 8.57673 1341.51 9.80261 1342.17 10.6378C1343.04 11.7597 1344.5 12.2293 1347.17 12.4121C1350.24 12.62 1351.26 12.5949 1351.83 13.3261C1352.09 13.638 1352.17 14.1864 1352.17 14.9965C1352.17 15.6238 1352.09 16.1973 1351.83 16.5091C1351.35 17.1077 1350.35 17.2655 1348.4 17.2655C1346.45 17.2655 1345.6 17.1615 1345.07 16.5091C1344.8 16.1686 1344.69 15.6238 1344.69 14.7599V14.2653H1341.05V14.7886C1341.05 16.8748 1341.37 18.3372 1342.15 19.3014C1343.21 20.6062 1344.73 21.022 1348.46 21.022C1351.68 21.022 1353.61 20.4986 1354.75 19.0899C1355.47 18.2046 1355.86 16.8461 1355.86 14.8101C1355.86 12.62 1355.58 11.1324 1354.9 10.2722C1353.93 9.0212 1352.04 8.80972 1349.18 8.57673V8.58031Z" fill="#ABB7C2"/>
<path d="M1291.94 24.2444H1290.74V23.7175H1293.6V24.2444H1292.41V27.7823H1291.94V24.2444Z" fill="#ABB7C2"/>
<path d="M1303.95 23.7139H1304.6L1306 27.7823H1305.49L1305.19 26.8897H1303.35L1303.05 27.7823H1302.55L1303.95 23.7139ZM1305.01 26.3628L1304.27 24.1978H1304.27L1303.53 26.3628H1305.01Z" fill="#ABB7C2"/>
<path d="M1315.72 23.7139H1316.2V27.2518H1318.01V27.7787H1315.72V23.7103V23.7139Z" fill="#ABB7C2"/>
<path d="M1327.8 23.7139H1330.26V24.2408H1328.28V25.4237H1330.16V25.9506H1328.28V27.2518H1330.27V27.7787H1327.8V23.7103V23.7139Z" fill="#ABB7C2"/>
<path d="M1340.21 23.7139H1340.9L1342.79 27.2052H1342.8V23.7139H1343.25V27.7823H1342.56L1340.67 24.291H1340.67V27.7823H1340.21V23.7139Z" fill="#ABB7C2"/>
<path d="M1354.23 24.2444H1353.04V23.7175H1355.9V24.2444H1354.71V27.7823H1354.23V24.2444Z" fill="#ABB7C2"/>
</svg>
