<svg width="53" height="65" viewBox="0 0 53 65" fill="none" xmlns="http://www.w3.org/2000/svg">
<path d="M47.7572 18.0256V12.3526L50.1132 13.5425C50.1132 13.5425 49.6848 8.5282 46.4078 5.65987C43.1308 2.79154 38.2152 2.94027 38.2152 2.94027L39.179 0.932434H32.1966C32.1966 0.932434 28.2449 0.932434 26.5635 2.98276C26.5635 2.98276 17.6963 2.31348 15.7686 13.5425L18.0282 12.5439V17.9937M28.5876 8.33698C28.5876 8.33698 25.7925 10.1961 26.8098 13.978C27.8272 17.76 32.5393 17.8025 34.467 17.8025H47.4787M29.8406 28.7446C29.8406 28.7446 31.3291 30.2213 32.9677 30.2213C34.6062 30.2213 36.0948 28.5959 36.0948 28.5959M26.6599 13.2131C26.6599 13.2131 22.3227 13.9249 22.3227 17.7493V26.2587C22.3227 26.2587 22.5583 32.5691 28.7268 34.715V36.6697L22.4619 37.7639M32.8713 12.5014C32.8713 12.5014 33.546 17.76 38.2687 17.76M19.2919 20.9576C19.2919 20.9576 21.9371 22.5299 22.1834 24.0597M46.6006 21.0957C46.6006 21.0957 43.8054 22.7636 43.5163 24.2934M28.7268 36.6803L37.2085 44.9985L40.9675 37.3921M24.7322 37.3921L28.6304 44.8922L37.2514 36.4785V34.6194C43.1736 32.4734 43.5591 26.3968 43.5591 26.3968V17.6537C43.5591 14.2117 41.5886 12.5439 41.5886 12.5439M30.9436 17.6112V23.7303C30.9436 23.7303 30.9008 26.2162 28.3413 26.2162H19.9559C19.9559 26.2162 16.0577 25.8338 16.0577 21.9669C16.0577 18.0999 20.3736 17.6856 20.3736 17.6856H29.9369M35.0238 17.8875V23.5498C35.0238 23.5498 35.056 26.1525 37.0693 26.1525H45.6903C45.6903 26.1525 49.9847 25.7276 49.9847 22.0518C49.9847 18.3761 46.8254 17.7918 46.4078 17.7918M44.5551 45.2322L37.9046 56.5143L34.0065 45.0197M34.0065 45.0197H31.9289L29.0909 53.4972M34.0065 45.0197L35.1524 43.405M37.2621 36.4891L41.096 37.254C41.096 37.254 45.6046 37.5833 47.4573 38.5182C49.31 39.453 51.334 41.7902 51.8374 44.138C52.3407 46.4858 52.1265 48.2705 50.6058 51.1388C49.0851 54.0072 45.5725 60.5512 45.5725 60.5512C45.5725 60.5512 43.6448 64.0676 40.3892 64.0676H23.6292C23.6292 64.0676 22.2798 63.9507 22.2798 62.729V57.8104H37.2835L39.254 59.7651M24.6573 57.7785C24.6573 57.7785 22.3227 57.6616 22.3227 55.4838V38.4438C22.3227 38.4438 22.3655 36.6485 20.9304 36.6485H2.34988C2.34988 36.6485 1.05405 36.7441 1.05405 38.1251V55.452C1.05405 55.452 1.32179 57.7891 3.56002 57.7891H23.2651M1.24682 53.5291H31.5005C31.5005 53.5291 33.064 53.5716 33.064 54.7933V57.7041M26.5421 57.8741V63.8232M13.8195 57.8529C13.8195 57.8529 13.5518 62.0066 16.6896 62.0066H22.1085M31.8646 44.9241L30.7294 43.3306M13.8302 45.1685C13.8302 46.3654 12.8521 47.3356 11.6455 47.3356C10.4389 47.3356 9.46083 46.3654 9.46083 45.1685C9.46083 43.9716 10.4389 43.0013 11.6455 43.0013C12.8521 43.0013 13.8302 43.9716 13.8302 45.1685Z" stroke="#EADDEA" stroke-width="1.8" stroke-linecap="round" stroke-linejoin="round"/>
</svg>
